JustTheBoards000001_forces_filt12Hz.mot
version=1
nRows=39
nColumns=28
inDegrees=yes
endheader
time	R_ground_force_vx	R_ground_force_vy	R_ground_force_vz	R_ground_force_px	R_ground_force_py	R_ground_force_pz	R_ground_torque_x	R_ground_torque_y	R_ground_torque_z	L_ground_force_vx	L_ground_force_vy	L_ground_force_vz	L_ground_force_px	L_ground_force_py	L_ground_force_pz	L_ground_torque_x	L_ground_torque_y	L_ground_torque_z	3_ground_force_vx	3_ground_force_vy	3_ground_force_vz	3_ground_force_px	3_ground_force_py	3_ground_force_pz	3_ground_torque_x	3_ground_torque_y	3_ground_torque_z	
1.559500	  0.000000	  0.000000	  0.000000	  0.000000	  0.000000	  0.000000	  0.000000	  0.000000	  0.000000	 -2.134314	138.916994	  1.458960	 -0.215109	  0.006000	 -0.915158	  0.000000	  0.804902	  0.000000	  0.115301	141.970704	 -0.023355	 -0.218700	  0.006000	 -1.478190	  0.000000	  0.074579	  0.000000
1.560000	  0.000000	  0.000000	  0.000000	  0.000000	  0.000000	  0.000000	  0.000000	  0.000000	  0.000000	 -2.135100	138.917179	  1.458892	 -0.215100	  0.006000	 -0.915160	  0.000000	  0.804542	  0.000000	  0.114541	141.972517	 -0.023302	 -0.218704	  0.006000	 -1.478188	  0.000000	  0.074256	  0.000000
1.560500	  0.000000	  0.000000	  0.000000	  0.000000	  0.000000	  0.000000	  0.000000	  0.000000	  0.000000	 -2.135882	138.917365	  1.458839	 -0.215091	  0.006000	 -0.915161	  0.000000	  0.804188	  0.000000	  0.113747	141.974375	 -0.023204	 -0.218707	  0.006000	 -1.478185	  0.000000	  0.073945	  0.000000
1.561000	  0.000000	  0.000000	  0.000000	  0.000000	  0.000000	  0.000000	  0.000000	  0.000000	  0.000000	 -2.136659	138.917550	  1.458801	 -0.215082	  0.006000	 -0.915162	  0.000000	  0.803841	  0.000000	  0.112923	141.976270	 -0.023061	 -0.218711	  0.006000	 -1.478182	  0.000000	  0.073645	  0.000000
1.561500	  0.000000	  0.000000	  0.000000	  0.000000	  0.000000	  0.000000	  0.000000	  0.000000	  0.000000	 -2.137431	138.917731	  1.458781	 -0.215073	  0.006000	 -0.915164	  0.000000	  0.803502	  0.000000	  0.112070	141.978192	 -0.022873	 -0.218714	  0.006000	 -1.478180	  0.000000	  0.073356	  0.000000
1.562000	  0.000000	  0.000000	  0.000000	  0.000000	  0.000000	  0.000000	  0.000000	  0.000000	  0.000000	 -2.138198	138.917908	  1.458781	 -0.215063	  0.006000	 -0.915165	  0.000000	  0.803170	  0.000000	  0.111192	141.980135	 -0.022640	 -0.218718	  0.006000	 -1.478177	  0.000000	  0.073079	  0.000000
1.562500	  0.000000	  0.000000	  0.000000	  0.000000	  0.000000	  0.000000	  0.000000	  0.000000	  0.000000	 -2.138960	138.918082	  1.458802	 -0.215054	  0.006000	 -0.915167	  0.000000	  0.802847	  0.000000	  0.110288	141.982089	 -0.022360	 -0.218721	  0.006000	 -1.478174	  0.000000	  0.072813	  0.000000
1.563000	  0.000000	  0.000000	  0.000000	  0.000000	  0.000000	  0.000000	  0.000000	  0.000000	  0.000000	 -2.139718	138.918253	  1.458847	 -0.215045	  0.006000	 -0.915169	  0.000000	  0.802533	  0.000000	  0.109361	141.984046	 -0.022034	 -0.218724	  0.006000	 -1.478171	  0.000000	  0.072559	  0.000000
1.563500	  0.000000	  0.000000	  0.000000	  0.000000	  0.000000	  0.000000	  0.000000	  0.000000	  0.000000	 -2.140474	138.918424	  1.458917	 -0.215036	  0.006000	 -0.915171	  0.000000	  0.802228	  0.000000	  0.108411	141.986000	 -0.021661	 -0.218727	  0.006000	 -1.478168	  0.000000	  0.072315	  0.000000
1.564000	  0.000000	  0.000000	  0.000000	  0.000000	  0.000000	  0.000000	  0.000000	  0.000000	  0.000000	 -2.141229	138.918595	  1.459014	 -0.215027	  0.006000	 -0.915173	  0.000000	  0.801933	  0.000000	  0.107437	141.987942	 -0.021242	 -0.218730	  0.006000	 -1.478164	  0.000000	  0.072083	  0.000000
1.564500	  0.000000	  0.000000	  0.000000	  0.000000	  0.000000	  0.000000	  0.000000	  0.000000	  0.000000	 -2.141982	138.918767	  1.459137	 -0.215018	  0.006000	 -0.915175	  0.000000	  0.801648	  0.000000	  0.106441	141.989868	 -0.020777	 -0.218733	  0.006000	 -1.478161	  0.000000	  0.071862	  0.000000
1.565000	  0.000000	  0.000000	  0.000000	  0.000000	  0.000000	  0.000000	  0.000000	  0.000000	  0.000000	 -2.142735	138.918940	  1.459290	 -0.215009	  0.006000	 -0.915177	  0.000000	  0.801372	  0.000000	  0.105422	141.991772	 -0.020266	 -0.218735	  0.006000	 -1.478158	  0.000000	  0.071652	  0.000000
1.565500	  0.000000	  0.000000	  0.000000	  0.000000	  0.000000	  0.000000	  0.000000	  0.000000	  0.000000	 -2.143488	138.919116	  1.459472	 -0.215000	  0.006000	 -0.915180	  0.000000	  0.801107	  0.000000	  0.104380	141.993647	 -0.019709	 -0.218738	  0.006000	 -1.478155	  0.000000	  0.071452	  0.000000
1.566000	  0.000000	  0.000000	  0.000000	  0.000000	  0.000000	  0.000000	  0.000000	  0.000000	  0.000000	 -2.144239	138.919295	  1.459686	 -0.214991	  0.006000	 -0.915182	  0.000000	  0.800853	  0.000000	  0.103313	141.995490	 -0.019108	 -0.218741	  0.006000	 -1.478151	  0.000000	  0.071263	  0.000000
1.566500	  0.000000	  0.000000	  0.000000	  0.000000	  0.000000	  0.000000	  0.000000	  0.000000	  0.000000	 -2.144988	138.919477	  1.459932	 -0.214982	  0.006000	 -0.915184	  0.000000	  0.800610	  0.000000	  0.102219	141.997294	 -0.018463	 -0.218743	  0.006000	 -1.478148	  0.000000	  0.071084	  0.000000
1.567000	  0.000000	  0.000000	  0.000000	  0.000000	  0.000000	  0.000000	  0.000000	  0.000000	  0.000000	 -2.145732	138.919660	  1.460211	 -0.214974	  0.006000	 -0.915187	  0.000000	  0.800378	  0.000000	  0.101098	141.999054	 -0.017774	 -0.218746	  0.006000	 -1.478145	  0.000000	  0.070916	  0.000000
1.567500	  0.000000	  0.000000	  0.000000	  0.000000	  0.000000	  0.000000	  0.000000	  0.000000	  0.000000	 -2.146472	138.919846	  1.460526	 -0.214965	  0.006000	 -0.915189	  0.000000	  0.800157	  0.000000	  0.099945	142.000765	 -0.017043	 -0.218748	  0.006000	 -1.478141	  0.000000	  0.070758	  0.000000
1.568000	  0.000000	  0.000000	  0.000000	  0.000000	  0.000000	  0.000000	  0.000000	  0.000000	  0.000000	 -2.147206	138.920034	  1.460878	 -0.214956	  0.006000	 -0.915192	  0.000000	  0.799948	  0.000000	  0.098760	142.002422	 -0.016272	 -0.218750	  0.006000	 -1.478138	  0.000000	  0.070611	  0.000000
1.568500	  0.000000	  0.000000	  0.000000	  0.000000	  0.000000	  0.000000	  0.000000	  0.000000	  0.000000	 -2.147934	138.920223	  1.461268	 -0.214947	  0.006000	 -0.915194	  0.000000	  0.799750	  0.000000	  0.097538	142.004023	 -0.015461	 -0.218752	  0.006000	 -1.478135	  0.000000	  0.070475	  0.000000
1.569000	  0.000000	  0.000000	  0.000000	  0.000000	  0.000000	  0.000000	  0.000000	  0.000000	  0.000000	 -2.148655	138.920412	  1.461698	 -0.214939	  0.006000	 -0.915197	  0.000000	  0.799562	  0.000000	  0.096279	142.005564	 -0.014613	 -0.218755	  0.006000	 -1.478131	  0.000000	  0.070349	  0.000000
1.569500	  0.000000	  0.000000	  0.000000	  0.000000	  0.000000	  0.000000	  0.000000	  0.000000	  0.000000	 -2.149369	138.920598	  1.462168	 -0.214930	  0.006000	 -0.915200	  0.000000	  0.799384	  0.000000	  0.094980	142.007046	 -0.013728	 -0.218757	  0.006000	 -1.478128	  0.000000	  0.070234	  0.000000
1.570000	  0.000000	  0.000000	  0.000000	  0.000000	  0.000000	  0.000000	  0.000000	  0.000000	  0.000000	 -2.150076	138.920779	  1.462683	 -0.214922	  0.006000	 -0.915202	  0.000000	  0.799215	  0.000000	  0.093641	142.008466	 -0.012810	 -0.218758	  0.006000	 -1.478125	  0.000000	  0.070129	  0.000000
1.570500	  0.000000	  0.000000	  0.000000	  0.000000	  0.000000	  0.000000	  0.000000	  0.000000	  0.000000	 -2.150773	138.920950	  1.463242	 -0.214914	  0.006000	 -0.915205	  0.000000	  0.799054	  0.000000	  0.092262	142.009824	 -0.011858	 -0.218760	  0.006000	 -1.478121	  0.000000	  0.070037	  0.000000
1.571000	  0.000000	  0.000000	  0.000000	  0.000000	  0.000000	  0.000000	  0.000000	  0.000000	  0.000000	 -2.151460	138.921108	  1.463847	 -0.214906	  0.006000	 -0.915208	  0.000000	  0.798900	  0.000000	  0.090844	142.011121	 -0.010874	 -0.218762	  0.006000	 -1.478118	  0.000000	  0.069955	  0.000000
1.571500	  0.000000	  0.000000	  0.000000	  0.000000	  0.000000	  0.000000	  0.000000	  0.000000	  0.000000	 -2.152137	138.921249	  1.464500	 -0.214898	  0.006000	 -0.915210	  0.000000	  0.798754	  0.000000	  0.089387	142.012359	 -0.009860	 -0.218764	  0.006000	 -1.478115	  0.000000	  0.069886	  0.000000
1.572000	  0.000000	  0.000000	  0.000000	  0.000000	  0.000000	  0.000000	  0.000000	  0.000000	  0.000000	 -2.152802	138.921368	  1.465201	 -0.214890	  0.006000	 -0.915213	  0.000000	  0.798615	  0.000000	  0.087894	142.013537	 -0.008816	 -0.218766	  0.006000	 -1.478112	  0.000000	  0.069828	  0.000000
1.572500	  0.000000	  0.000000	  0.000000	  0.000000	  0.000000	  0.000000	  0.000000	  0.000000	  0.000000	 -2.153456	138.921461	  1.465951	 -0.214882	  0.006000	 -0.915215	  0.000000	  0.798483	  0.000000	  0.086363	142.014659	 -0.007744	 -0.218767	  0.006000	 -1.478109	  0.000000	  0.069783	  0.000000
1.573000	  0.000000	  0.000000	  0.000000	  0.000000	  0.000000	  0.000000	  0.000000	  0.000000	  0.000000	 -2.154098	138.921526	  1.466751	 -0.214874	  0.006000	 -0.915218	  0.000000	  0.798357	  0.000000	  0.084797	142.015725	 -0.006645	 -0.218769	  0.006000	 -1.478106	  0.000000	  0.069749	  0.000000
1.573500	  0.000000	  0.000000	  0.000000	  0.000000	  0.000000	  0.000000	  0.000000	  0.000000	  0.000000	 -2.154731	138.921562	  1.467601	 -0.214867	  0.006000	 -0.915221	  0.000000	  0.798239	  0.000000	  0.083197	142.016737	 -0.005519	 -0.218770	  0.006000	 -1.478103	  0.000000	  0.069728	  0.000000
1.574000	  0.000000	  0.000000	  0.000000	  0.000000	  0.000000	  0.000000	  0.000000	  0.000000	  0.000000	 -2.155354	138.921570	  1.468503	 -0.214860	  0.006000	 -0.915223	  0.000000	  0.798127	  0.000000	  0.081564	142.017696	 -0.004369	 -0.218772	  0.006000	 -1.478100	  0.000000	  0.069719	  0.000000
1.574500	  0.000000	  0.000000	  0.000000	  0.000000	  0.000000	  0.000000	  0.000000	  0.000000	  0.000000	 -2.155971	138.921551	  1.469455	 -0.214852	  0.006000	 -0.915226	  0.000000	  0.798021	  0.000000	  0.079900	142.018604	 -0.003196	 -0.218773	  0.006000	 -1.478098	  0.000000	  0.069723	  0.000000
1.575000	  0.000000	  0.000000	  0.000000	  0.000000	  0.000000	  0.000000	  0.000000	  0.000000	  0.000000	 -2.156581	138.921511	  1.470458	 -0.214845	  0.006000	 -0.915229	  0.000000	  0.797923	  0.000000	  0.078206	142.019461	 -0.002001	 -0.218774	  0.006000	 -1.478095	  0.000000	  0.069739	  0.000000
1.575500	  0.000000	  0.000000	  0.000000	  0.000000	  0.000000	  0.000000	  0.000000	  0.000000	  0.000000	 -2.157186	138.921453	  1.471512	 -0.214838	  0.006000	 -0.915232	  0.000000	  0.797831	  0.000000	  0.076483	142.020272	 -0.000787	 -0.218775	  0.006000	 -1.478093	  0.000000	  0.069768	  0.000000
1.576000	  0.000000	  0.000000	  0.000000	  0.000000	  0.000000	  0.000000	  0.000000	  0.000000	  0.000000	 -2.157785	138.921384	  1.472616	 -0.214832	  0.006000	 -0.915234	  0.000000	  0.797746	  0.000000	  0.074733	142.021041	  0.000443	 -0.218777	  0.006000	 -1.478090	  0.000000	  0.069809	  0.000000
1.576500	  0.000000	  0.000000	  0.000000	  0.000000	  0.000000	  0.000000	  0.000000	  0.000000	  0.000000	 -2.158379	138.921309	  1.473770	 -0.214825	  0.006000	 -0.915237	  0.000000	  0.797668	  0.000000	  0.072958	142.021770	  0.001689	 -0.218778	  0.006000	 -1.478088	  0.000000	  0.069863	  0.000000
1.577000	  0.000000	  0.000000	  0.000000	  0.000000	  0.000000	  0.000000	  0.000000	  0.000000	  0.000000	 -2.158968	138.921231	  1.474975	 -0.214818	  0.006000	 -0.915240	  0.000000	  0.797598	  0.000000	  0.071158	142.022465	  0.002946	 -0.218779	  0.006000	 -1.478086	  0.000000	  0.069929	  0.000000
1.577500	  0.000000	  0.000000	  0.000000	  0.000000	  0.000000	  0.000000	  0.000000	  0.000000	  0.000000	 -2.159552	138.921154	  1.476232	 -0.214811	  0.006000	 -0.915243	  0.000000	  0.797534	  0.000000	  0.069334	142.023130	  0.004215	 -0.218780	  0.006000	 -1.478084	  0.000000	  0.070007	  0.000000
1.578000	  0.000000	  0.000000	  0.000000	  0.000000	  0.000000	  0.000000	  0.000000	  0.000000	  0.000000	 -2.160132	138.921081	  1.477540	 -0.214805	  0.006000	 -0.915246	  0.000000	  0.797478	  0.000000	  0.067487	142.023770	  0.005491	 -0.218781	  0.006000	 -1.478082	  0.000000	  0.070096	  0.000000
1.578500	  0.000000	  0.000000	  0.000000	  0.000000	  0.000000	  0.000000	  0.000000	  0.000000	  0.000000	 -2.160710	138.921013	  1.478900	 -0.214798	  0.006000	 -0.915249	  0.000000	  0.797430	  0.000000	  0.065619	142.024388	  0.006774	 -0.218781	  0.006000	 -1.478080	  0.000000	  0.070196	  0.000000
